<mxfile host="app.diagrams.net" modified="2022-05-15T12:26:09.458Z" agent="5.0 (Windows NT 10.0; Win64; x64) AppleWebKit/537.36 (KHTML, like Gecko) Chrome/101.0.4951.67 Safari/537.36" etag="vNiN-y296i1MDfpNCfUR" version="18.0.3" type="github">
  <diagram name="Page-1" id="5f0bae14-7c28-e335-631c-24af17079c00">
    <mxGraphModel dx="1738" dy="969" grid="1" gridSize="10" guides="1" tooltips="1" connect="1" arrows="1" fold="1" page="1" pageScale="1" pageWidth="1000" pageHeight="700" background="none" math="0" shadow="0">
      <root>
        <mxCell id="0" />
        <mxCell id="1" parent="0" />
        <mxCell id="GD5Y9Dy7A48NqxTqgsGr-49" style="edgeStyle=orthogonalEdgeStyle;rounded=0;orthogonalLoop=1;jettySize=auto;html=1;exitX=0.5;exitY=1;exitDx=0;exitDy=0;" edge="1" parent="1" source="OvZTbV0vpH_meImBvA-r-33">
          <mxGeometry relative="1" as="geometry">
            <mxPoint x="580.3076923076924" y="440.38461538461536" as="targetPoint" />
          </mxGeometry>
        </mxCell>
        <mxCell id="OvZTbV0vpH_meImBvA-r-33" value="&lt;p style=&quot;margin:0px;margin-top:4px;text-align:center;&quot;&gt;&lt;b&gt;Class&lt;/b&gt;&lt;/p&gt;&lt;hr size=&quot;1&quot;&gt;&lt;p style=&quot;margin:0px;margin-left:4px;&quot;&gt;+ attribute: input_fund(int)&lt;/p&gt;&lt;p style=&quot;margin:0px;margin-left:4px;&quot;&gt;+ attribute: data(int *)&lt;/p&gt;&lt;p style=&quot;margin:0px;margin-left:4px;&quot;&gt;&lt;/p&gt;&amp;nbsp;+ attribute: buytimes(int)&lt;br&gt;&amp;nbsp;+ attribute: record1(int **&amp;amp;)&lt;br&gt;&amp;nbsp;+ attribute: record2(int **&amp;amp;)&lt;br&gt;&amp;nbsp;+ attribute: earnHistory(int **&amp;amp;)&lt;br&gt;&amp;nbsp;+ accumalateearnprice(int *&amp;amp;)&lt;br&gt;&lt;span style=&quot;color: rgba(0, 0, 0, 0); font-family: monospace; font-size: 0px;&quot;&gt;%3CmxGraphModel%3E%3Croot%3E%3CmxCell%20id%3D%220%22%2F%3E%3CmxCell%20id%3D%221%22%20parent%3D%220%22%2F%3E%3CmxCell%20id%3D%222%22%20value%3D%22threecradleup%22%20style%3D%22swimlane%3BfontStyle%3D0%3BchildLayout%3DstackLayout%3Bhorizontal%3D1%3BstartSize%3D26%3BfillColor%3Dnone%3BhorizontalStack%3D0%3BresizeParent%3D1%3BresizeParentMax%3D0%3BresizeLast%3D0%3Bcollapsible%3D1%3BmarginBottom%3D0%3B%22%20vertex%3D%221%22%20parent%3D%221%22%3E%3CmxGeometry%20x%3D%221420%22%20y%3D%22130%22%20width%3D%22140%22%20height%3D%22110%22%20as%3D%22geometry%22%2F%3E%3C%2FmxCell%3E%3CmxCell%20id%3D%223%22%20value%3D%22%2B%20input%3Adata%5Bi%5D%2C%20data%5Bi%20%2B%201%5D%26%2310%3B%22%20style%3D%22text%3BstrokeColor%3Dnone%3BfillColor%3Dnone%3Balign%3Dleft%3BverticalAlign%3Dtop%3BspacingLeft%3D4%3BspacingRight%3D4%3Boverflow%3Dhidden%3Brotatable%3D0%3Bpoints%3D%5B%5B0%2C0.5%5D%2C%5B1%2C0.5%5D%5D%3BportConstraint%3Deastwest%3B%22%20vertex%3D%221%22%20parent%3D%222%22%3E%3CmxGeometry%20y%3D%2226%22%20width%3D%22140%22%20height%3D%2226%22%20as%3D%22geometry%22%2F%3E%3C%2FmxCell%3E%3CmxCell%20id%3D%224%22%20value%3D%22%C2%A0%C2%A0%C2%A0%C2%A0data%5Bi%20%2B%202%5D%26%2310%3B%26%2310%3B%2Bouput%3A%20bool%22%20style%3D%22text%3BstrokeColor%3Dnone%3BfillColor%3Dnone%3Balign%3Dleft%3BverticalAlign%3Dtop%3BspacingLeft%3D4%3BspacingRight%3D4%3Boverflow%3Dhidden%3Brotatable%3D0%3Bpoints%3D%5B%5B0%2C0.5%5D%2C%5B1%2C0.5%5D%5D%3BportConstraint%3Deastwest%3B%22%20vertex%3D%221%22%20parent%3D%222%22%3E%3CmxGeometry%20y%3D%2252%22%20width%3D%22140%22%20height%3D%2258%22%20as%3D%22geometry%22%2F%3E%3C%2FmxCell%3E%3C%2Froot%3E%3C%2FmxGraphModel%3&lt;/span&gt;&lt;p style=&quot;margin:0px;margin-left:4px;&quot;&gt;+ method (): strategy1&lt;/p&gt;&lt;p style=&quot;margin:0px;margin-left:4px;&quot;&gt;+ method (): isK1&lt;/p&gt;&lt;p style=&quot;margin:0px;margin-left:4px;&quot;&gt;+ method (): isK2&lt;/p&gt;&lt;p style=&quot;margin:0px;margin-left:4px;&quot;&gt;+ method (): isK3&lt;/p&gt;&lt;p style=&quot;margin:0px;margin-left:4px;&quot;&gt;+ method (): threecradleup&lt;/p&gt;&lt;p style=&quot;margin: 0px 0px 0px 4px;&quot;&gt;+ method (): threecradledown&lt;/p&gt;&lt;p style=&quot;margin: 0px 0px 0px 4px;&quot;&gt;+ method (): buyandrecord&lt;/p&gt;&lt;p style=&quot;margin: 0px 0px 0px 4px;&quot;&gt;+ method (): buyandrecord2&lt;/p&gt;&lt;p style=&quot;margin: 0px 0px 0px 4px;&quot;&gt;+ method (): sell&lt;/p&gt;&lt;p style=&quot;margin: 0px 0px 0px 4px;&quot;&gt;+ method (): sell2&lt;/p&gt;&lt;p style=&quot;margin: 0px 0px 0px 4px;&quot;&gt;+ method (): earnrecord&lt;/p&gt;&lt;p style=&quot;margin: 0px 0px 0px 4px;&quot;&gt;+ method (): accumalateearn&amp;nbsp;&lt;/p&gt;&lt;p style=&quot;margin: 0px 0px 0px 4px;&quot;&gt;&lt;br&gt;&lt;/p&gt;&lt;p style=&quot;margin: 0px 0px 0px 4px;&quot;&gt;&lt;br&gt;&lt;/p&gt;&lt;p style=&quot;margin: 0px 0px 0px 4px;&quot;&gt;&lt;br&gt;&lt;/p&gt;&lt;p style=&quot;margin: 0px 0px 0px 4px;&quot;&gt;&lt;br&gt;&lt;/p&gt;&lt;p style=&quot;margin: 0px 0px 0px 4px;&quot;&gt;&lt;br&gt;&lt;/p&gt;&lt;p style=&quot;margin:0px;margin-left:4px;&quot;&gt;&lt;br&gt;&lt;/p&gt;" style="verticalAlign=top;align=left;overflow=fill;fontSize=12;fontFamily=Helvetica;html=1;" parent="1" vertex="1">
          <mxGeometry x="480" y="131" width="200" height="329" as="geometry" />
        </mxCell>
        <mxCell id="pjkMJ0nkNtOoTfBjEoBQ-14" value="" style="rounded=1;absoluteArcSize=1;html=1;arcSize=10;" parent="1" vertex="1">
          <mxGeometry x="810" y="131" width="330" height="309" as="geometry" />
        </mxCell>
        <mxCell id="pjkMJ0nkNtOoTfBjEoBQ-15" value="&lt;span style=&quot;text-align: left;&quot;&gt;strategy1&lt;/span&gt;" style="html=1;shape=mxgraph.er.anchor;whiteSpace=wrap;" parent="pjkMJ0nkNtOoTfBjEoBQ-14" vertex="1">
          <mxGeometry width="165" height="309" as="geometry" />
        </mxCell>
        <mxCell id="pjkMJ0nkNtOoTfBjEoBQ-16" value="&lt;p style=&quot;text-align: left; margin: 0px 0px 0px 4px;&quot;&gt;+ method (): isK1&lt;/p&gt;&lt;p style=&quot;text-align: left; margin: 0px 0px 0px 4px;&quot;&gt;+ method (): isK2&lt;/p&gt;&lt;p style=&quot;text-align: left; margin: 0px 0px 0px 4px;&quot;&gt;+ method (): isK3&lt;/p&gt;&lt;p style=&quot;text-align: left; margin: 0px 0px 0px 4px;&quot;&gt;+ method (): threecradleup&lt;/p&gt;&lt;p style=&quot;text-align: left; margin: 0px 0px 0px 4px;&quot;&gt;+ method (): threecradledown&lt;/p&gt;&lt;p style=&quot;text-align: left; margin: 0px 0px 0px 4px;&quot;&gt;+ method (): buyandrecord&lt;/p&gt;&lt;p style=&quot;text-align: left; margin: 0px 0px 0px 4px;&quot;&gt;+ method (): buyandrecord2&lt;/p&gt;&lt;p style=&quot;text-align: left; margin: 0px 0px 0px 4px;&quot;&gt;+ method (): sell&lt;/p&gt;&lt;p style=&quot;text-align: left; margin: 0px 0px 0px 4px;&quot;&gt;+ method (): sell2&lt;/p&gt;&lt;p style=&quot;text-align: left; margin: 0px 0px 0px 4px;&quot;&gt;+ method (): earnrecord&lt;/p&gt;&lt;p style=&quot;text-align: left; margin: 0px 0px 0px 4px;&quot;&gt;+ method (): accumalateearn&amp;nbsp;&lt;/p&gt;" style="rounded=1;absoluteArcSize=1;html=1;arcSize=10;whiteSpace=wrap;points=[];strokeColor=inherit;fillColor=inherit;" parent="pjkMJ0nkNtOoTfBjEoBQ-14" vertex="1">
          <mxGeometry x="110" y="15.450000000000001" width="187" height="262.65000000000003" as="geometry" />
        </mxCell>
        <mxCell id="GD5Y9Dy7A48NqxTqgsGr-1" value="isK1" style="swimlane;fontStyle=0;childLayout=stackLayout;horizontal=1;startSize=26;fillColor=none;horizontalStack=0;resizeParent=1;resizeParentMax=0;resizeLast=0;collapsible=1;marginBottom=0;" vertex="1" parent="1">
          <mxGeometry x="1190" y="131" width="140" height="78" as="geometry" />
        </mxCell>
        <mxCell id="GD5Y9Dy7A48NqxTqgsGr-2" value="+ input: data[i]" style="text;strokeColor=none;fillColor=none;align=left;verticalAlign=top;spacingLeft=4;spacingRight=4;overflow=hidden;rotatable=0;points=[[0,0.5],[1,0.5]];portConstraint=eastwest;" vertex="1" parent="GD5Y9Dy7A48NqxTqgsGr-1">
          <mxGeometry y="26" width="140" height="26" as="geometry" />
        </mxCell>
        <mxCell id="GD5Y9Dy7A48NqxTqgsGr-4" value="+ ouput: highest" style="text;strokeColor=none;fillColor=none;align=left;verticalAlign=top;spacingLeft=4;spacingRight=4;overflow=hidden;rotatable=0;points=[[0,0.5],[1,0.5]];portConstraint=eastwest;" vertex="1" parent="GD5Y9Dy7A48NqxTqgsGr-1">
          <mxGeometry y="52" width="140" height="26" as="geometry" />
        </mxCell>
        <mxCell id="GD5Y9Dy7A48NqxTqgsGr-5" value="isK2" style="swimlane;fontStyle=0;childLayout=stackLayout;horizontal=1;startSize=26;fillColor=none;horizontalStack=0;resizeParent=1;resizeParentMax=0;resizeLast=0;collapsible=1;marginBottom=0;" vertex="1" parent="1">
          <mxGeometry x="1190" y="240" width="140" height="78" as="geometry" />
        </mxCell>
        <mxCell id="GD5Y9Dy7A48NqxTqgsGr-6" value="+ input: data[i]" style="text;strokeColor=none;fillColor=none;align=left;verticalAlign=top;spacingLeft=4;spacingRight=4;overflow=hidden;rotatable=0;points=[[0,0.5],[1,0.5]];portConstraint=eastwest;" vertex="1" parent="GD5Y9Dy7A48NqxTqgsGr-5">
          <mxGeometry y="26" width="140" height="26" as="geometry" />
        </mxCell>
        <mxCell id="GD5Y9Dy7A48NqxTqgsGr-7" value="+ ouput: highest" style="text;strokeColor=none;fillColor=none;align=left;verticalAlign=top;spacingLeft=4;spacingRight=4;overflow=hidden;rotatable=0;points=[[0,0.5],[1,0.5]];portConstraint=eastwest;" vertex="1" parent="GD5Y9Dy7A48NqxTqgsGr-5">
          <mxGeometry y="52" width="140" height="26" as="geometry" />
        </mxCell>
        <mxCell id="GD5Y9Dy7A48NqxTqgsGr-8" value="isK1" style="swimlane;fontStyle=0;childLayout=stackLayout;horizontal=1;startSize=26;fillColor=none;horizontalStack=0;resizeParent=1;resizeParentMax=0;resizeLast=0;collapsible=1;marginBottom=0;" vertex="1" parent="1">
          <mxGeometry x="1190" y="360" width="140" height="78" as="geometry" />
        </mxCell>
        <mxCell id="GD5Y9Dy7A48NqxTqgsGr-9" value="+ input: data[i]" style="text;strokeColor=none;fillColor=none;align=left;verticalAlign=top;spacingLeft=4;spacingRight=4;overflow=hidden;rotatable=0;points=[[0,0.5],[1,0.5]];portConstraint=eastwest;" vertex="1" parent="GD5Y9Dy7A48NqxTqgsGr-8">
          <mxGeometry y="26" width="140" height="26" as="geometry" />
        </mxCell>
        <mxCell id="GD5Y9Dy7A48NqxTqgsGr-10" value="+ ouput: highest&#xa;" style="text;strokeColor=none;fillColor=none;align=left;verticalAlign=top;spacingLeft=4;spacingRight=4;overflow=hidden;rotatable=0;points=[[0,0.5],[1,0.5]];portConstraint=eastwest;" vertex="1" parent="GD5Y9Dy7A48NqxTqgsGr-8">
          <mxGeometry y="52" width="140" height="26" as="geometry" />
        </mxCell>
        <mxCell id="GD5Y9Dy7A48NqxTqgsGr-11" value="threecradleup" style="swimlane;fontStyle=0;childLayout=stackLayout;horizontal=1;startSize=26;fillColor=none;horizontalStack=0;resizeParent=1;resizeParentMax=0;resizeLast=0;collapsible=1;marginBottom=0;" vertex="1" parent="1">
          <mxGeometry x="1420" y="130" width="160" height="110" as="geometry" />
        </mxCell>
        <mxCell id="GD5Y9Dy7A48NqxTqgsGr-12" value="+ input:data[i], data[i + 1]&#xa;" style="text;strokeColor=none;fillColor=none;align=left;verticalAlign=top;spacingLeft=4;spacingRight=4;overflow=hidden;rotatable=0;points=[[0,0.5],[1,0.5]];portConstraint=eastwest;" vertex="1" parent="GD5Y9Dy7A48NqxTqgsGr-11">
          <mxGeometry y="26" width="160" height="26" as="geometry" />
        </mxCell>
        <mxCell id="GD5Y9Dy7A48NqxTqgsGr-14" value="    data[i + 2]&#xa;&#xa;+ouput: bool" style="text;strokeColor=none;fillColor=none;align=left;verticalAlign=top;spacingLeft=4;spacingRight=4;overflow=hidden;rotatable=0;points=[[0,0.5],[1,0.5]];portConstraint=eastwest;" vertex="1" parent="GD5Y9Dy7A48NqxTqgsGr-11">
          <mxGeometry y="52" width="160" height="58" as="geometry" />
        </mxCell>
        <mxCell id="GD5Y9Dy7A48NqxTqgsGr-21" value="threecradledown" style="swimlane;fontStyle=0;childLayout=stackLayout;horizontal=1;startSize=26;fillColor=none;horizontalStack=0;resizeParent=1;resizeParentMax=0;resizeLast=0;collapsible=1;marginBottom=0;" vertex="1" parent="1">
          <mxGeometry x="1420" y="320" width="160" height="110" as="geometry" />
        </mxCell>
        <mxCell id="GD5Y9Dy7A48NqxTqgsGr-22" value="+ input:data[i], data[i + 1]&#xa;" style="text;strokeColor=none;fillColor=none;align=left;verticalAlign=top;spacingLeft=4;spacingRight=4;overflow=hidden;rotatable=0;points=[[0,0.5],[1,0.5]];portConstraint=eastwest;" vertex="1" parent="GD5Y9Dy7A48NqxTqgsGr-21">
          <mxGeometry y="26" width="160" height="26" as="geometry" />
        </mxCell>
        <mxCell id="GD5Y9Dy7A48NqxTqgsGr-23" value="    data[i + 2]&#xa;&#xa;+ouput: bool" style="text;strokeColor=none;fillColor=none;align=left;verticalAlign=top;spacingLeft=4;spacingRight=4;overflow=hidden;rotatable=0;points=[[0,0.5],[1,0.5]];portConstraint=eastwest;" vertex="1" parent="GD5Y9Dy7A48NqxTqgsGr-21">
          <mxGeometry y="52" width="160" height="58" as="geometry" />
        </mxCell>
        <mxCell id="GD5Y9Dy7A48NqxTqgsGr-24" value="buyandrecord" style="swimlane;fontStyle=0;childLayout=stackLayout;horizontal=1;startSize=26;fillColor=none;horizontalStack=0;resizeParent=1;resizeParentMax=0;resizeLast=0;collapsible=1;marginBottom=0;" vertex="1" parent="1">
          <mxGeometry x="1670" y="131" width="200" height="110" as="geometry" />
        </mxCell>
        <mxCell id="GD5Y9Dy7A48NqxTqgsGr-25" value="+ input:data[i], record1&#xa;&#xa;void record 1= append&#xa;{buy, stopWinPrice, stopLosePrice}" style="text;strokeColor=none;fillColor=none;align=left;verticalAlign=top;spacingLeft=4;spacingRight=4;overflow=hidden;rotatable=0;points=[[0,0.5],[1,0.5]];portConstraint=eastwest;" vertex="1" parent="GD5Y9Dy7A48NqxTqgsGr-24">
          <mxGeometry y="26" width="200" height="84" as="geometry" />
        </mxCell>
        <mxCell id="GD5Y9Dy7A48NqxTqgsGr-27" value="buyandrecord2" style="swimlane;fontStyle=0;childLayout=stackLayout;horizontal=1;startSize=26;fillColor=none;horizontalStack=0;resizeParent=1;resizeParentMax=0;resizeLast=0;collapsible=1;marginBottom=0;" vertex="1" parent="1">
          <mxGeometry x="1670" y="318" width="200" height="110" as="geometry" />
        </mxCell>
        <mxCell id="GD5Y9Dy7A48NqxTqgsGr-28" value="+ input:data[i], record2&#xa;&#xa;void record2 = appeend&#xa;{buy, stopWinPrice, stopLosePrice}" style="text;strokeColor=none;fillColor=none;align=left;verticalAlign=top;spacingLeft=4;spacingRight=4;overflow=hidden;rotatable=0;points=[[0,0.5],[1,0.5]];portConstraint=eastwest;" vertex="1" parent="GD5Y9Dy7A48NqxTqgsGr-27">
          <mxGeometry y="26" width="200" height="84" as="geometry" />
        </mxCell>
        <mxCell id="GD5Y9Dy7A48NqxTqgsGr-29" value="sell" style="swimlane;fontStyle=0;childLayout=stackLayout;horizontal=1;startSize=26;fillColor=none;horizontalStack=0;resizeParent=1;resizeParentMax=0;resizeLast=0;collapsible=1;marginBottom=0;" vertex="1" parent="1">
          <mxGeometry x="1930" y="130" width="140" height="76" as="geometry" />
        </mxCell>
        <mxCell id="GD5Y9Dy7A48NqxTqgsGr-31" value="+input: data[i], record1" style="text;strokeColor=none;fillColor=none;align=left;verticalAlign=top;spacingLeft=4;spacingRight=4;overflow=hidden;rotatable=0;points=[[0,0.5],[1,0.5]];portConstraint=eastwest;" vertex="1" parent="GD5Y9Dy7A48NqxTqgsGr-29">
          <mxGeometry y="26" width="140" height="24" as="geometry" />
        </mxCell>
        <mxCell id="GD5Y9Dy7A48NqxTqgsGr-32" value="void record =  pop" style="text;strokeColor=none;fillColor=none;align=left;verticalAlign=top;spacingLeft=4;spacingRight=4;overflow=hidden;rotatable=0;points=[[0,0.5],[1,0.5]];portConstraint=eastwest;" vertex="1" parent="GD5Y9Dy7A48NqxTqgsGr-29">
          <mxGeometry y="50" width="140" height="26" as="geometry" />
        </mxCell>
        <mxCell id="GD5Y9Dy7A48NqxTqgsGr-33" value="sell2" style="swimlane;fontStyle=0;childLayout=stackLayout;horizontal=1;startSize=26;fillColor=none;horizontalStack=0;resizeParent=1;resizeParentMax=0;resizeLast=0;collapsible=1;marginBottom=0;" vertex="1" parent="1">
          <mxGeometry x="1930" y="320" width="140" height="76" as="geometry" />
        </mxCell>
        <mxCell id="GD5Y9Dy7A48NqxTqgsGr-44" value="" style="curved=1;endArrow=classic;html=1;rounded=0;entryX=0.442;entryY=1.104;entryDx=0;entryDy=0;entryPerimeter=0;" edge="1" parent="GD5Y9Dy7A48NqxTqgsGr-33" target="GD5Y9Dy7A48NqxTqgsGr-37">
          <mxGeometry width="50" height="50" relative="1" as="geometry">
            <mxPoint x="80" y="40" as="sourcePoint" />
            <mxPoint x="130" y="-10" as="targetPoint" />
            <Array as="points">
              <mxPoint x="130" y="40" />
              <mxPoint x="80" y="-10" />
            </Array>
          </mxGeometry>
        </mxCell>
        <mxCell id="GD5Y9Dy7A48NqxTqgsGr-34" value="+input: data[i], record2" style="text;strokeColor=none;fillColor=none;align=left;verticalAlign=top;spacingLeft=4;spacingRight=4;overflow=hidden;rotatable=0;points=[[0,0.5],[1,0.5]];portConstraint=eastwest;" vertex="1" parent="GD5Y9Dy7A48NqxTqgsGr-33">
          <mxGeometry y="26" width="140" height="24" as="geometry" />
        </mxCell>
        <mxCell id="GD5Y9Dy7A48NqxTqgsGr-35" value="void record =  pop" style="text;strokeColor=none;fillColor=none;align=left;verticalAlign=top;spacingLeft=4;spacingRight=4;overflow=hidden;rotatable=0;points=[[0,0.5],[1,0.5]];portConstraint=eastwest;" vertex="1" parent="GD5Y9Dy7A48NqxTqgsGr-33">
          <mxGeometry y="50" width="140" height="26" as="geometry" />
        </mxCell>
        <mxCell id="GD5Y9Dy7A48NqxTqgsGr-36" value="earnrecord" style="swimlane;fontStyle=0;childLayout=stackLayout;horizontal=1;startSize=26;fillColor=none;horizontalStack=0;resizeParent=1;resizeParentMax=0;resizeLast=0;collapsible=1;marginBottom=0;" vertex="1" parent="1">
          <mxGeometry x="2120" y="130" width="310" height="50" as="geometry" />
        </mxCell>
        <mxCell id="GD5Y9Dy7A48NqxTqgsGr-37" value="+input: earnHistory,    data[i](buyprice sellprice)" style="text;strokeColor=none;fillColor=none;align=left;verticalAlign=top;spacingLeft=4;spacingRight=4;overflow=hidden;rotatable=0;points=[[0,0.5],[1,0.5]];portConstraint=eastwest;" vertex="1" parent="GD5Y9Dy7A48NqxTqgsGr-36">
          <mxGeometry y="26" width="310" height="24" as="geometry" />
        </mxCell>
        <mxCell id="GD5Y9Dy7A48NqxTqgsGr-43" value="" style="curved=1;endArrow=classic;html=1;rounded=0;" edge="1" parent="1" target="GD5Y9Dy7A48NqxTqgsGr-37">
          <mxGeometry width="50" height="50" relative="1" as="geometry">
            <mxPoint x="2010" y="160" as="sourcePoint" />
            <mxPoint x="2060" y="110" as="targetPoint" />
            <Array as="points">
              <mxPoint x="2060" y="160" />
              <mxPoint x="2010" y="110" />
              <mxPoint x="2100" y="100" />
              <mxPoint x="2160" y="130" />
            </Array>
          </mxGeometry>
        </mxCell>
        <mxCell id="GD5Y9Dy7A48NqxTqgsGr-45" value="accumalateearn" style="swimlane;fontStyle=0;childLayout=stackLayout;horizontal=1;startSize=26;fillColor=none;horizontalStack=0;resizeParent=1;resizeParentMax=0;resizeLast=0;collapsible=1;marginBottom=0;" vertex="1" parent="1">
          <mxGeometry x="2205" y="306" width="180" height="78" as="geometry" />
        </mxCell>
        <mxCell id="GD5Y9Dy7A48NqxTqgsGr-46" value="+ input: input_fund, buytimes," style="text;strokeColor=none;fillColor=none;align=left;verticalAlign=top;spacingLeft=4;spacingRight=4;overflow=hidden;rotatable=0;points=[[0,0.5],[1,0.5]];portConstraint=eastwest;" vertex="1" parent="GD5Y9Dy7A48NqxTqgsGr-45">
          <mxGeometry y="26" width="180" height="26" as="geometry" />
        </mxCell>
        <mxCell id="GD5Y9Dy7A48NqxTqgsGr-47" value="accumalateearnprice" style="text;strokeColor=none;fillColor=none;align=left;verticalAlign=top;spacingLeft=4;spacingRight=4;overflow=hidden;rotatable=0;points=[[0,0.5],[1,0.5]];portConstraint=eastwest;" vertex="1" parent="GD5Y9Dy7A48NqxTqgsGr-45">
          <mxGeometry y="52" width="180" height="26" as="geometry" />
        </mxCell>
      </root>
    </mxGraphModel>
  </diagram>
</mxfile>
